<svg width="250" height="250" viewBox="0 0 250 250" fill="none" xmlns="http://www.w3.org/2000/svg">
<path d="M125 145.833C116.319 145.833 108.941 142.795 102.865 136.719C96.7882 130.642 93.75 123.264 93.75 114.583V52.0833C93.75 43.4028 96.7882 36.0243 102.865 29.9479C108.941 23.8715 116.319 20.8333 125 20.8333C133.681 20.8333 141.059 23.8715 147.135 29.9479C153.212 36.0243 156.25 43.4028 156.25 52.0833V114.583C156.25 123.264 153.212 130.642 147.135 136.719C141.059 142.795 133.681 145.833 125 145.833ZM114.583 218.75V186.719C96.5278 184.288 81.5972 176.215 69.7916 162.5C57.9861 148.785 52.0833 132.812 52.0833 114.583H72.9166C72.9166 128.993 77.9948 141.276 88.151 151.432C98.3073 161.589 110.59 166.667 125 166.667C139.41 166.667 151.693 161.589 161.849 151.432C172.005 141.276 177.083 128.993 177.083 114.583H197.917C197.917 132.812 192.014 148.785 180.208 162.5C168.403 176.215 153.472 184.288 135.417 186.719V218.75H114.583Z" fill="black"/>
</svg>
