<svg width="99" height="99" viewBox="0 0 99 99" fill="none" xmlns="http://www.w3.org/2000/svg">
<g clip-path="url(#clip0_34_129)">
<path d="M49.0248 0.386719C23.953 0.386721 25.5186 11.2594 25.5186 11.2594L25.5466 22.5234H49.472V25.9054H16.0435C16.0435 25.9054 0 24.0859 0 49.3836C-1.78819e-06 74.6814 14.0031 73.7842 14.0031 73.7842H22.3602V62.0451C22.3602 62.0451 21.9098 48.042 36.1398 48.042H59.8696C59.8696 48.042 73.2019 48.2575 73.2019 35.1569V13.4954C73.2019 13.4954 75.2261 0.386719 49.0248 0.386719ZM35.8323 7.96125C38.2127 7.96125 40.1366 9.88519 40.1366 12.2656C40.1366 14.646 38.2127 16.5699 35.8323 16.5699C33.4519 16.57 31.5279 14.646 31.5279 12.2656C31.5279 9.88519 33.4519 7.96125 35.8323 7.96125Z" fill="url(#paint0_linear_34_129)"/>
<path d="M49.737 98.6341C74.8088 98.6341 73.2432 87.7615 73.2432 87.7615L73.2152 76.4975H49.2898V73.1155H82.7183C82.7183 73.1155 98.7618 74.935 98.7618 49.6372C98.7618 24.3395 84.7587 25.2366 84.7587 25.2366H76.4016V36.9757C76.4016 36.9757 76.852 50.9788 62.6221 50.9788H38.8922C38.8922 50.9788 25.5599 50.7633 25.5599 63.8639V85.5254C25.5599 85.5254 23.5357 98.6341 49.737 98.6341ZM62.9295 91.0596C60.5491 91.0596 58.6252 89.1357 58.6252 86.7552C58.6252 84.3748 60.5491 82.4509 62.9295 82.4509C65.3099 82.4509 67.2339 84.3748 67.2339 86.7552C67.2339 89.1357 65.3099 91.0596 62.9295 91.0596Z" fill="url(#paint1_linear_34_129)"/>
</g>
<defs>
<linearGradient id="paint0_linear_34_129" x1="9.49119" y1="9.22381" x2="58.4339" y2="57.6783" gradientUnits="userSpaceOnUse">
<stop stop-color="#387EB8"/>
<stop offset="1" stop-color="#366994"/>
</linearGradient>
<linearGradient id="paint1_linear_34_129" x1="39.5323" y1="40.3381" x2="92.0916" y2="90.024" gradientUnits="userSpaceOnUse">
<stop stop-color="#FFE052"/>
<stop offset="1" stop-color="#FFC331"/>
</linearGradient>
<clipPath id="clip0_34_129">
<rect width="99" height="99" fill="white"/>
</clipPath>
</defs>
</svg>
