<svg width="99" height="99" viewBox="0 0 99 99" fill="none" xmlns="http://www.w3.org/2000/svg">
<path d="M81.3979 33.963C80.3709 33.6096 79.3067 33.2751 78.211 32.9588C78.3911 32.2238 78.5563 31.4983 78.7033 30.7851C81.1157 19.0749 79.5384 9.64099 74.1523 6.53496C68.9877 3.55669 60.5413 6.66202 52.0109 14.0858C51.1906 14.7996 50.3681 15.5554 49.5458 16.3475C48.998 15.8235 48.451 15.317 47.9054 14.8326C38.9653 6.89463 30.0042 3.54947 24.6234 6.66448C19.4637 9.65139 17.9357 18.5201 20.1073 29.618C20.317 30.69 20.5621 31.7846 20.8393 32.8976C19.571 33.2576 18.3467 33.6414 17.1752 34.0497C6.69384 37.704 0 43.4311 0 49.3716C0 55.507 7.18584 61.6609 18.1029 65.3923C18.9645 65.6868 19.8584 65.9652 20.7797 66.2296C20.4807 67.4333 20.2206 68.6129 20.0022 69.7635C17.9317 80.6688 19.5486 89.328 24.6946 92.296C30.0099 95.3612 38.9304 92.2105 47.6168 84.6176C48.3033 84.0174 48.9923 83.3809 49.6826 82.7138C50.5772 83.5753 51.4705 84.3907 52.359 85.1554C60.7727 92.3957 69.0826 95.3194 74.2238 92.3431C79.5338 89.2691 81.2595 79.967 79.0191 68.6496C78.848 67.7852 78.6489 66.9022 78.4252 66.0035C79.0517 65.8183 79.6667 65.6271 80.2664 65.4283C91.6157 61.668 99 55.589 99 49.3716C99 43.4096 92.0903 37.6439 81.3979 33.963ZM78.9363 61.4139C78.3949 61.5931 77.8395 61.7663 77.2735 61.9342C76.0206 57.9677 74.3296 53.7499 72.2602 49.3922C74.2349 45.1383 75.8605 40.9744 77.0784 37.0337C78.0911 37.3267 79.0741 37.6358 80.0212 37.962C89.1825 41.1158 94.7708 45.7787 94.7708 49.3716C94.7708 53.1987 88.7356 58.1669 78.9363 61.4139ZM74.8702 69.4709C75.8609 74.4754 76.0024 79 75.3462 82.537C74.7565 85.7153 73.5708 87.8343 72.1046 88.683C68.9847 90.4889 62.3127 88.1415 55.1171 81.9495C54.2923 81.2397 53.4614 80.4818 52.6279 79.6796C55.4174 76.6288 58.2054 73.082 60.9264 69.143C65.7123 68.7183 70.2339 68.024 74.3343 67.0761C74.5363 67.8908 74.7157 68.6898 74.8702 69.4709ZM33.7513 88.3709C30.7031 89.4474 28.2753 89.4783 26.8078 88.6321C23.685 86.8309 22.3868 79.8784 24.1576 70.5522C24.3605 69.4841 24.6019 68.387 24.8801 67.2656C28.9356 68.1623 33.4241 68.8076 38.2215 69.1966C40.9608 73.051 43.8293 76.5939 46.72 79.696C46.0884 80.3057 45.4593 80.8862 44.8337 81.4332C40.9927 84.7907 37.1435 87.1728 33.7513 88.3709ZM19.4708 61.3904C14.6434 59.7405 10.6568 57.5961 7.9242 55.2561C5.46877 53.1533 4.22907 51.0656 4.22907 49.3716C4.22907 45.7667 9.60356 41.1686 18.5673 38.0434C19.6549 37.6642 20.7935 37.3068 21.975 36.9711C23.2138 41.0009 24.8389 45.2141 26.8 49.4745C24.8135 53.7982 23.1654 58.0786 21.9144 62.1556C21.0721 61.9134 20.256 61.6586 19.4708 61.3904ZM24.2577 28.8058C22.3972 19.2974 23.6329 12.1246 26.7422 10.3247C30.0543 8.40729 37.3781 11.1411 45.0972 17.9952C45.5906 18.4332 46.0859 18.8918 46.5827 19.3661C43.7063 22.4547 40.8641 25.971 38.1491 29.8027C33.493 30.2343 29.0361 30.9275 24.9383 31.8558C24.6807 30.8195 24.4525 29.8013 24.2577 28.8058ZM66.9619 39.3506C65.9823 37.6585 64.9766 36.0065 63.9513 34.3995C67.1101 34.7989 70.1364 35.3289 72.9785 35.9776C72.1252 38.7121 71.0618 41.5713 69.8099 44.5023C68.9119 42.7974 67.9621 41.0784 66.9619 39.3506ZM49.5472 22.3887C51.498 24.502 53.4515 26.8616 55.373 29.4217C53.4367 29.3303 51.4765 29.2827 49.5 29.2827C47.5422 29.2827 45.5964 29.3292 43.6721 29.4191C45.5955 26.8828 47.566 24.5264 49.5472 22.3887ZM32.021 39.3798C31.0425 41.0766 30.1103 42.7863 29.2264 44.4992C27.9948 41.5783 26.9412 38.7062 26.0805 35.9328C28.9051 35.3007 31.9173 34.7839 35.0559 34.3921C34.0162 36.0139 33.0022 37.6781 32.021 39.3795V39.3798ZM35.1463 64.6528C31.9035 64.291 28.8461 63.8007 26.0222 63.1861C26.8966 60.3632 27.9735 57.4297 29.2312 54.446C30.1174 56.1576 31.0533 57.868 32.0378 59.5685H32.038C33.0408 61.3009 34.0798 62.9979 35.1463 64.6528ZM49.6642 76.6527C47.6598 74.49 45.6604 72.0976 43.7077 69.5243C45.6033 69.5987 47.5359 69.6368 49.5 69.6368C51.5179 69.6368 53.5127 69.5913 55.4761 69.5039C53.5483 72.1236 51.6018 74.5196 49.6642 76.6527ZM69.8503 54.2939C71.1735 57.3099 72.289 60.2281 73.1746 63.0028C70.3042 63.6577 67.205 64.1851 63.9397 64.577C64.9674 62.9484 65.9819 61.268 66.9788 59.5394C67.9873 57.7906 68.9448 56.0392 69.8503 54.2939ZM63.3154 57.4266C61.7678 60.1098 60.179 62.6714 58.5661 65.0893C55.6284 65.2993 52.5933 65.4075 49.5 65.4075C46.4192 65.4075 43.4224 65.3118 40.5366 65.1245C38.8587 62.6749 37.2354 60.1058 35.6977 57.4496H35.698C34.1644 54.8007 32.7529 52.1294 31.4739 49.4731C32.7525 46.8106 34.1603 44.1363 35.6852 41.4922L35.6848 41.4927C37.2137 38.8415 38.8227 36.2849 40.4852 33.8506C43.4294 33.6281 46.4486 33.5119 49.4998 33.5119H49.5C52.565 33.5119 55.588 33.6289 58.5314 33.8534C60.1685 36.2699 61.7666 38.8182 63.3014 41.4698C64.8538 44.1511 66.2797 46.8076 67.5693 49.413C66.2836 52.0632 64.8608 54.7465 63.3154 57.4266ZM72.0398 10.1989C75.355 12.1107 76.6442 19.821 74.5613 29.9315C74.4284 30.5767 74.2788 31.2338 74.1163 31.8997C70.009 30.952 65.5489 30.2468 60.8793 29.8087C58.159 25.9349 55.3401 22.4131 52.5105 19.3642C53.2713 18.6324 54.0309 17.9345 54.7874 17.276C62.0963 10.9154 68.9274 8.40412 72.0398 10.1989ZM49.5 40.5312C54.3823 40.5312 58.3404 44.4891 58.3404 49.3716C58.3404 54.2539 54.3823 58.212 49.5 58.212C44.6177 58.212 40.6596 54.2539 40.6596 49.3716C40.6596 44.4891 44.6177 40.5312 49.5 40.5312Z" fill="#00D8FF"/>
</svg>
