<svg width="99" height="99" viewBox="0 0 99 99" fill="none" xmlns="http://www.w3.org/2000/svg">
<path d="M49.5 19.7227C36.3 19.7227 28.05 26.3227 24.75 39.5227C29.7 32.9227 35.475 30.4477 42.075 32.0977C45.8407 33.0391 48.5322 35.7709 51.5113 38.795C56.3645 43.7212 61.9815 49.4227 74.25 49.4227C87.45 49.4227 95.7 42.8227 99 29.6227C94.05 36.2227 88.275 38.6977 81.675 37.0477C77.9093 36.1062 75.2178 33.3744 72.2387 30.3503C67.3855 25.4241 61.7685 19.7227 49.5 19.7227ZM24.75 49.4227C11.55 49.4227 3.3 56.0227 0 69.2227C4.95 62.6227 10.725 60.1477 17.325 61.7977C21.0907 62.7391 23.7822 65.4709 26.7613 68.495C31.6145 73.4212 37.2315 79.1227 49.5 79.1227C62.7 79.1227 70.95 72.5227 74.25 59.3227C69.3 65.9227 63.525 68.3977 56.925 66.7477C53.1593 65.8062 50.4678 63.0744 47.4887 60.0503C42.6355 55.1241 37.0185 49.4227 24.75 49.4227Z" fill="url(#paint0_linear_34_18)"/>
<path d="M49.5 19.7227C36.3 19.7227 28.05 26.3227 24.75 39.5227C29.7 32.9227 35.475 30.4477 42.075 32.0977C45.8407 33.0391 48.5322 35.7709 51.5113 38.795C56.3645 43.7212 61.9815 49.4227 74.25 49.4227C87.45 49.4227 95.7 42.8227 99 29.6227C94.05 36.2227 88.275 38.6977 81.675 37.0477C77.9093 36.1062 75.2178 33.3744 72.2387 30.3503C67.3855 25.4241 61.7685 19.7227 49.5 19.7227ZM24.75 49.4227C11.55 49.4227 3.3 56.0227 0 69.2227C4.95 62.6227 10.725 60.1477 17.325 61.7977C21.0907 62.7391 23.7822 65.4709 26.7613 68.495C31.6145 73.4212 37.2315 79.1227 49.5 79.1227C62.7 79.1227 70.95 72.5227 74.25 59.3227C69.3 65.9227 63.525 68.3977 56.925 66.7477C53.1593 65.8062 50.4678 63.0744 47.4887 60.0503C42.6355 55.1241 37.0185 49.4227 24.75 49.4227Z" fill="url(#paint1_linear_34_18)"/>
<defs>
<linearGradient id="paint0_linear_34_18" x1="-2.75" y1="38.7307" x2="82.7527" y2="88.0295" gradientUnits="userSpaceOnUse">
<stop stop-color="#2298BD"/>
<stop offset="1" stop-color="#0ED7B5"/>
</linearGradient>
<linearGradient id="paint1_linear_34_18" x1="-2.75" y1="38.7307" x2="82.7527" y2="88.0295" gradientUnits="userSpaceOnUse">
<stop stop-color="#2298BD"/>
<stop offset="1" stop-color="#0ED7B5"/>
</linearGradient>
</defs>
</svg>
