<svg width="99" height="99" viewBox="0 0 99 99" fill="none" xmlns="http://www.w3.org/2000/svg">
<g clip-path="url(#clip0_34_82)">
<path d="M7.73438 0H91.2656C95.5372 0 99 3.4628 99 7.73438V91.2656C99 95.5372 95.5372 99 91.2656 99H7.73438C3.4628 99 0 95.5372 0 91.2656V7.73438C0 3.4628 3.4628 0 7.73438 0Z" fill="#3178C6"/>
<path d="M58.2081 77.5274V88.2086C59.9453 89.0988 61.9999 89.7663 64.3717 90.2114C66.7434 90.6565 69.2432 90.8789 71.8713 90.8789C74.4321 90.8789 76.8654 90.6341 79.1702 90.1445C81.4751 89.6549 83.4964 88.8482 85.2332 87.7248C86.9703 86.601 88.3455 85.1323 89.3591 83.3186C90.3723 81.5052 90.8789 79.2634 90.8789 76.5931C90.8789 74.6572 90.5893 72.9603 90.0103 71.5027C89.4314 70.0452 88.5961 68.7489 87.5048 67.6143C86.4138 66.4793 85.1052 65.4614 83.58 64.56C82.0544 63.6589 80.3339 62.8078 78.4184 62.0069C77.0154 61.428 75.7574 60.8664 74.6437 60.3212C73.5303 59.7759 72.5836 59.2198 71.8044 58.6521C71.0248 58.0848 70.4234 57.4838 70.0003 56.8496C69.5773 56.2154 69.3657 55.498 69.3657 54.6967C69.3657 53.9623 69.5548 53.3007 69.9334 52.7109C70.312 52.1212 70.8469 51.615 71.5372 51.1923C72.2275 50.7692 73.0736 50.4413 74.076 50.2073C75.078 49.9737 76.1917 49.8569 77.4165 49.8569C78.3075 49.8569 79.2483 49.9238 80.2391 50.0573C81.2303 50.1907 82.2268 50.3964 83.2292 50.6748C84.2312 50.9529 85.2054 51.3033 86.152 51.7263C87.0983 52.149 87.9727 52.6386 88.7744 53.1947V43.2147C87.1486 42.5917 85.3724 42.1299 83.4462 41.8294C81.5199 41.529 79.3094 41.3789 76.8151 41.3789C74.2763 41.3789 71.8713 41.6515 69.5997 42.1968C67.3281 42.7417 65.3292 43.5929 63.6032 44.7499C61.8773 45.9074 60.5134 47.3816 59.511 49.1728C58.509 50.9641 58.0078 53.1058 58.0078 55.5982C58.0078 58.7801 58.9263 61.4949 60.764 63.7425C62.6013 65.9897 65.3903 67.8923 69.1318 69.45C70.6017 70.051 71.9715 70.6404 73.2407 71.2193C74.5103 71.7978 75.607 72.3984 76.5313 73.0214C77.4555 73.6444 78.1849 74.3231 78.7193 75.0575C79.2538 75.7918 79.521 76.6264 79.521 77.5611C79.521 78.2506 79.3539 78.8906 79.0198 79.4804C78.6861 80.0697 78.1791 80.5817 77.5 81.0156C76.8209 81.4495 75.9744 81.7887 74.9612 82.0335C73.948 82.2783 72.7619 82.4009 71.4034 82.4009C69.0873 82.4009 66.7937 81.9948 64.5221 81.1823C62.2501 80.3702 60.1456 79.1521 58.2081 77.5274ZM40.4051 50.9471H54.1406V42.1523H15.8555V50.9471H29.5239V90.1055H40.4051V50.9471Z" fill="white"/>
</g>
<defs>
<clipPath id="clip0_34_82">
<rect width="99" height="99" fill="white"/>
</clipPath>
</defs>
</svg>
